<svg xmlns="http://www.w3.org/2000/svg" id="Layer_1" viewBox="0 0 512 512" data-name="Layer 1"><path d="m502.561 313.804c-7.077-8.036-21.437-11.979-37.561-2.67-20.456 11.81-71.426 36.654-109.394 51.018 1.68-7.155.562-14.707-3.386-21.35-5.505-9.264-15.149-14.577-25.914-14.215-46.938-.022-78.618-13.165-104.08-23.728-24.267-10.066-45.228-18.759-69.964-12.773-25.056 6.064-51.757 26.89-86.256 67.341-3.213-1.594-6.779-2.442-10.481-2.442-6.307 0-12.225 2.444-16.661 6.881l-32.812 32.812c-2.734 2.734-2.734 7.166 0 9.899l101.432 101.432c1.312 1.312 3.093 2.05 4.949 2.05s3.637-.738 4.949-2.05l32.812-32.813c4.438-4.437 6.882-10.354 6.882-16.661 0-3.056-.579-6.019-1.676-8.768 21.086-8.922 44.567-9.697 74.606-7.901 6.711.401 13.752.969 21.207 1.569 17.675 1.424 35.95 2.895 53.605 2.505 37.046-.818 59.354-11.229 89.159-27.017 30.399-16.103 95.222-54.544 107.31-70.434 8.463-11.125 8.963-23.955 1.273-32.686zm-362.266 149.493-27.863 27.863-91.532-91.532 27.862-27.863c1.794-1.793 4.195-2.781 6.763-2.781s4.968.987 6.762 2.781l78.009 78.008c1.793 1.793 2.78 4.194 2.78 6.762s-.987 4.969-2.78 6.762zm349.85-125.283c-8.559 11.25-63.192 45.6-102.72 66.539-28.036 14.851-48.953 24.642-82.916 25.392-16.93.377-34.848-1.068-52.172-2.464-7.529-.606-14.641-1.179-21.495-1.589-26.508-1.586-56.826-2.143-84.181 10.45l-69.924-69.924c68.498-80.328 94.113-69.714 140.125-50.627 26.631 11.047 59.775 24.796 109.567 24.796.088 0 .177-.002.265-.005 5.6-.218 10.623 2.545 13.491 7.372 2.869 4.827 2.878 10.574.025 15.374-5.141 8.651-23.634 13.146-49.431 12.016-24.123-1.052-48.418-6.823-57.97-11.794-3.428-1.784-7.656-.452-9.44 2.978-1.785 3.429-.452 7.656 2.978 9.441 12.854 6.689 39.695 12.309 63.822 13.362 2.698.118 5.488.186 8.329.186 12.858 0 26.728-1.411 37.635-6.023 38.24-10.78 109.576-45.057 135.867-60.235 9.216-5.32 16.856-3.833 20.055-.201 3.181 3.611 2.467 9.203-1.91 14.957zm-324.788-229.513 18.281 11.606c-3.366 12.854-5.069 26.131-5.069 39.548 0 85.862 69.854 155.715 155.715 155.715s155.715-69.854 155.715-155.715-69.854-155.714-155.715-155.714c-47.621 0-91.837 21.279-121.587 58.439l-45.626 20.921c-4.864 2.23-7.986 6.75-8.35 12.092-.362 5.34 2.119 10.24 6.636 13.107zm7.331-12.159c.015-.21.026-.228.218-.315l74.18-34.015c.126-.057.184-.06.181-.06 0 0 .058.01.175.085.114.072.148.119.148.119 0 .002.023.056.024.192l.773 81.606c.003.207-.008.226-.19.327s-.209.1-.382-.012l-20.119-12.773c-1.947-1.236-4.378-1.434-6.5-.529-2.121.906-3.66 2.798-4.115 5.06-1.552 7.729-2.339 15.679-2.339 23.628 0 65.916 53.626 119.542 119.542 119.542s119.542-53.626 119.542-119.542-53.626-119.542-119.542-119.542c-26.605 0-51.892 8.639-72.646 24.588l-.024-2.488c-.049-4.963-2.479-9.335-6.669-11.995-2.458-1.561-5.176-2.306-7.94-2.269 24.641-19.336 55.107-30.009 87.28-30.009 78.142 0 141.715 63.573 141.715 141.715s-63.573 141.715-141.715 141.715-141.715-63.573-141.715-141.715c0-13.849 1.991-27.53 5.919-40.664.898-3.002-.309-6.236-2.954-7.916l-22.674-14.395c-.176-.112-.186-.131-.172-.339zm89.122-13.405c19.669-18.612 45.29-28.824 72.474-28.824 58.196 0 105.542 47.346 105.542 105.542s-47.346 105.542-105.542 105.542-105.542-47.346-105.542-105.542c0-3.535.176-7.07.525-10.579l11.044 7.012c4.519 2.87 10.01 3.031 14.688.429 4.679-2.601 7.441-7.349 7.389-12.698l-.577-60.881zm37.519 125.334c3.485 6.036 9.212 9.862 16.123 10.772 1.017.134 2.023.2 3.019.2 5.774 0 11.137-2.229 15.341-6.433l76.796-76.795c8.215-8.214 8.215-21.58 0-29.794-8.215-8.215-21.581-8.213-29.794 0l-58.167 58.167-13.461-23.316c-2.804-4.855-7.349-8.334-12.799-9.794-5.452-1.46-11.127-.721-15.98 2.083-4.86 2.806-8.341 7.351-9.8 12.796-1.46 5.447-.718 11.123 2.088 15.982l26.635 46.132zm-15.2-58.49c.491-1.834 1.655-3.36 3.277-4.296 1.07-.618 2.266-.934 3.483-.934.623 0 1.252.083 1.874.249 1.838.493 3.363 1.654 4.297 3.271l18.022 31.216c1.089 1.885 2.991 3.156 5.148 3.44 2.164.285 4.325-.451 5.863-1.99l64.617-64.617c2.756-2.757 7.241-2.755 9.997 0 2.755 2.756 2.755 7.24 0 9.996l-76.796 76.795c-1.858 1.859-4.029 2.597-6.634 2.252-2.606-.343-4.513-1.617-5.826-3.893l-26.635-46.132c-.936-1.621-1.181-3.524-.689-5.358z"></path></svg>