<svg xmlns="http://www.w3.org/2000/svg" height="512" viewBox="0 0 43 56" width="512"><g id="Page-1" fill="none" fill-rule="evenodd"><g id="023---Steering-Wheel" fill="rgb(0,0,0)" fill-rule="nonzero"><path id="Shape" d="m12 9.479v7.521c0 .5522847.4477153 1 1 1h20c.5522847 0 1-.4477153 1-1v-7.521c-.92-.653-4.108-2.479-11-2.479s-10.07 1.819-11 2.479z"></path><path id="Shape" d="m6.4 6.949 4.04 1.21c.719-.614 4.194-3.159 12.56-3.159s11.841 2.545 12.558 3.159l4.04-1.21c.4224385-.12725359.7115667-.51631097.7115667-.9575s-.2891282-.83024641-.7115667-.9575l-16.308-4.949c-.1894692-.05702335-.3915308-.05702335-.581 0l-16.309 4.949c-.4224385.12725359-.71156673.51631097-.71156673.9575s.28912823.83024641.71156673.9575z"></path><path id="Shape" d="m34.441 19.615c-.4396119.249192-.9356837.3817303-1.441.385h-1.791c1.9761624 1.0206062 3.7471221 2.3969646 5.224 4.06.008.011.019.019.027.03 2.5736784 2.8925052 4.139707 6.5417765 4.463 10.4 0 .035 0 .068.006.1.036.467.071.934.071 1.41 0 9.9411255-8.0588745 18-18 18s-18-8.0588745-18-18c0-.476.035-.943.071-1.41 0-.034 0-.067.006-.1.32378913-3.8580997 1.88975316-7.5072205 4.463-10.4.008-.011.018-.019.026-.029 1.4771495-1.6634246 3.2484476-3.0401216 5.225-4.061h-1.791c-.5053163-.0032697-1.0013881-.135808-1.441-.385-7.16523711 4.9972936-10.2580667 14.0668399-7.63893055 22.4007281 2.61913614 8.3338881 10.34416695 14.0036469 19.07993055 14.0036469s16.4607944-5.6697588 19.0799306-14.0036469c2.6191361-8.3338882-.4736935-17.4034345-7.6389306-22.4007281z"></path><circle id="Oval" cx="23" cy="36" r="4"></circle><path id="Shape" d="m7.124 34.1c6.6945661 3.9250332 11.6185602 10.2795214 13.748 17.742 1.4108455.2106715 2.8451545.2106715 4.256 0 2.1294398-7.4624786 7.0534339-13.8169668 13.748-17.742-.3652383-3.074444-1.6186907-5.9757677-3.607-8.349-4.0362025.8347444-8.147385 1.2532681-12.269 1.249-4.1217181.0032812-8.2329017-.4162479-12.269-1.252-1.98884123 2.3740628-3.24232601 5.2765039-3.607 8.352zm15.876-4.1c3.3137085 0 6 2.6862915 6 6s-2.6862915 6-6 6-6-2.6862915-6-6c.0033074-3.3123376 2.6876624-5.9966926 6-6z"></path><path id="Shape" d="m6 20v-2c-.05014354-1.4385734-.79595988-2.7631432-2-3.552v-6.448c0-.55228475-.44771525-1-1-1s-1 .44771525-1 1v6.448c-1.20404012.7888568-1.94985646 2.1134266-2 3.552v2c0 .5522847.44771525 1 1 1h4c.55228475 0 1-.4477153 1-1zm-2-1h-2v-1c.04438091-.7202338.41192729-1.3818172 1-1.8.58796252.4182813.95547719 1.0798077 1 1.8z"></path></g></g></svg>