<svg xmlns="http://www.w3.org/2000/svg" id="Capa_1" viewBox="0 0 512 512"><g><path d="m187.526 63.549c1.919 0 3.839-.732 5.304-2.197 34.831-34.831 91.506-34.83 126.335 0 2.93 2.93 7.678 2.929 10.607 0s2.929-7.678 0-10.606c-40.682-40.68-106.87-40.68-147.55 0-2.929 2.929-2.929 7.678 0 10.606 1.466 1.465 3.385 2.197 5.304 2.197z"></path><path d="m309.916 81.207c2.929-2.929 2.929-7.678 0-10.606-29.731-29.729-78.104-29.732-107.838 0-2.929 2.929-2.929 7.678 0 10.606 1.465 1.464 3.385 2.197 5.304 2.197s3.839-.732 5.304-2.197c23.883-23.882 62.742-23.881 86.623 0 2.929 2.929 7.677 2.929 10.607 0z"></path><path d="m221.934 90.457c-2.929 2.929-2.929 7.678 0 10.606 2.93 2.929 7.678 2.929 10.607 0 12.934-12.934 33.979-12.934 46.912 0 1.465 1.464 3.385 2.197 5.304 2.197s3.839-.732 5.304-2.197c2.929-2.929 2.929-7.678 0-10.606-18.784-18.782-49.344-18.782-68.127 0z"></path><path d="m381.143 144.729c-8.115-6.735-18.497-10.444-29.232-10.444h-15.097c-4.143 0-7.5 3.358-7.5 7.5s3.357 7.5 7.5 7.5h15.097c7.244 0 14.224 2.481 19.652 6.986 41.636 34.557 65.515 85.375 65.515 139.425 0 47.935-18.544 93.116-52.217 127.221-71.216 72.355-186.083 70.255-255.151 2.884-34.558-33.525-54.01-78.69-54.775-127.175-.871-55.185 22.988-107.062 65.46-142.329 5.446-4.522 12.438-7.012 19.687-7.012h141.681c4.143 0 7.5-3.358 7.5-7.5s-3.357-7.5-7.5-7.5h-141.682c-10.741 0-21.137 3.719-29.269 10.472-45.986 38.185-71.819 94.354-70.876 154.106.829 52.487 21.898 101.391 59.327 137.704 78.498 76.266 202.772 71.871 276.271-3.111 36.462-36.93 56.542-85.854 56.542-137.76.001-58.526-25.853-113.551-70.933-150.967z"></path><path d="m397.408 273.225c-5.106-32.317-21.373-62.19-45.804-84.116-1.377-1.235-3.16-1.918-5.01-1.918h-181.201c-1.849 0-3.632.683-5.009 1.917-24.442 21.928-40.708 51.803-45.798 84.12-.342 2.166.282 4.374 1.707 6.041s3.508 2.626 5.701 2.626h268.006c2.193 0 4.277-.96 5.702-2.628 1.425-1.667 2.048-3.875 1.706-6.042zm-266.327-6.329c5.674-24.652 18.666-47.29 37.229-64.705h175.365c18.554 17.413 31.549 40.053 37.233 64.705z"></path><path d="m199.401 324.16c-2.929-6.313-9.071-10.236-16.031-10.236h-60.659c-2.232 0-4.349.995-5.773 2.713-1.425 1.719-2.011 3.983-1.597 6.176 4.583 24.31 15.466 47.085 31.472 65.863 1.426 1.672 3.512 2.635 5.708 2.635h.014c2.202-.004 4.29-.975 5.712-2.656l38.616-45.645c4.494-5.313 5.468-12.536 2.538-18.85zm-13.99 9.163-32.707 38.66c-9.511-12.897-16.517-27.532-20.614-43.058h51.28c1.484 0 2.156.97 2.425 1.548.267.577.574 1.716-.384 2.85z"></path><path d="m223.505 419.796c-4.018-1.032-8.101 1.385-9.132 5.396-1.031 4.012 1.385 8.1 5.396 9.131 34.566 9.163 75.415 4.28 107.072-14.149 1.936-1.105 3.279-3.013 3.667-5.208.388-2.194-.221-4.448-1.66-6.149l-50.562-59.764c-5.56-6.571-13.685-10.34-22.292-10.34s-16.732 3.769-22.292 10.34l-50.668 59.891c-2.676 3.163-2.28 7.895.882 10.57 3.16 2.675 7.894 2.28 10.569-.881l50.668-59.891c2.704-3.196 6.655-5.028 10.841-5.028s8.137 1.833 10.841 5.028l44.52 52.622c-26.251 12.662-58.587 16.07-87.85 8.432z"></path><path d="m359.306 391.139h.017c2.194 0 4.279-.961 5.704-2.631 16.039-18.791 26.959-41.501 31.579-65.676.42-2.196-.162-4.465-1.587-6.188s-3.544-2.72-5.779-2.72h-60.621c-6.96 0-13.104 3.922-16.032 10.236s-1.955 13.537 2.541 18.851l38.47 45.472c1.42 1.68 3.507 2.651 5.708 2.656zm-33.112-60.667c.268-.578.939-1.548 2.424-1.548h51.215c-4.128 15.432-11.158 30.01-20.688 42.893l-32.567-38.495c-.959-1.133-.652-2.272-.384-2.85z"></path><path d="m239.205 315.21h33.578c4.143 0 7.5-3.358 7.5-7.5s-3.357-7.5-7.5-7.5h-33.578c-4.143 0-7.5 3.358-7.5 7.5s3.357 7.5 7.5 7.5z"></path><path d="m35.37 393.562c-13.516-30.656-20.37-63.333-20.37-97.123s6.854-66.466 20.37-97.122c10.635-24.12 24.958-46.055 42.686-65.413v23.087c0 4.142 3.357 7.5 7.5 7.5s7.5-3.358 7.5-7.5v-41.373c.049-3.833-3.314-7.606-7.5-7.5h-41.372c-4.143 0-7.5 3.358-7.5 7.5s3.357 7.5 7.5 7.5h23.424c-19.113 20.723-34.542 44.245-45.963 70.147-14.363 32.575-21.645 67.288-21.645 103.174s7.282 70.599 21.645 103.174c13.871 31.46 33.643 59.424 58.766 83.113 1.449 1.366 3.299 2.043 5.145 2.043 1.993 0 3.982-.79 5.458-2.354 2.842-3.014 2.702-7.761-.312-10.602-23.658-22.306-42.274-48.634-55.332-78.251z"></path><path d="m512 296.439c0-35.889-7.283-70.603-21.646-103.179-13.874-31.466-33.649-59.429-58.777-83.111-3.013-2.84-7.76-2.701-10.602.314-2.841 3.014-2.7 7.761.314 10.602 23.66 22.299 42.278 48.625 55.34 78.247 13.517 30.657 20.371 63.335 20.371 97.127s-6.854 66.47-20.371 97.128c-10.637 24.126-24.964 46.066-42.696 65.428v-23.087c0-4.142-3.357-7.5-7.5-7.5s-7.5 3.358-7.5 7.5v41.372c.126 3.818 2.865 7.455 7.5 7.5h41.372c4.143 0 7.5-3.358 7.5-7.5s-3.357-7.5-7.5-7.5h-23.423c19.118-20.728 34.55-44.255 45.972-70.163 14.363-32.575 21.646-67.29 21.646-103.178z"></path></g><g></g><g></g><g></g><g></g><g></g><g></g><g></g><g></g><g></g><g></g><g></g><g></g><g></g><g></g><g></g></svg>