<svg xmlns="http://www.w3.org/2000/svg" id="Capa_1" height="512" viewBox="0 0 512 512" width="512"><g><path d="m488.456.643h-222.209c-12.982 0-23.544 10.53-23.544 23.474v108.173c0 11.713 8.626 21.452 19.871 23.218v10.314c0 6.487 3.416 12.086 8.915 14.611 2.064.948 4.282 1.411 6.54 1.411 4.34 0 8.824-1.714 12.631-4.985l24.567-21.066h49.496c4.143 0 7.5-3.357 7.5-7.5s-3.357-7.5-7.5-7.5h-52.271c-1.791 0-3.522.641-4.882 1.807l-26.68 22.878c-1.641 1.409-2.896 1.466-3.127 1.338-.049-.057-.189-.362-.189-.993v-17.529c0-4.143-3.357-7.5-7.5-7.5h-3.827c-4.711 0-8.544-3.814-8.544-8.503v-108.175c0-4.673 3.833-8.474 8.544-8.474h222.209c4.711 0 8.544 3.801 8.544 8.474v108.174c0 4.688-3.833 8.503-8.544 8.503h-86.117c-4.143 0-7.5 3.357-7.5 7.5s3.357 7.5 7.5 7.5h86.117c12.982 0 23.544-10.543 23.544-23.503v-108.174c0-12.943-10.562-23.473-23.544-23.473z"></path><path d="m380.1 102.097-19.757-52.192c-.019-.047-.036-.094-.056-.141-1.312-3.267-4.438-5.404-7.965-5.445-.035-.001-.07-.001-.105-.001-3.497 0-6.638 2.064-8.02 5.283-.04.094-.078.188-.115.284l-19.928 52.192c-1.478 3.869.462 8.204 4.332 9.682 3.869 1.476 8.204-.462 9.682-4.332l2.186-5.726c.035 0 .069.005.105.005h23.272c.06 0 .118-.008.177-.009l2.161 5.71c1.136 3 3.988 4.847 7.016 4.847.883 0 1.78-.157 2.654-.487 3.875-1.467 5.826-5.796 4.361-9.67zm-34.02-15.391 6.104-15.986 6.051 15.986z"></path><path d="m479.458 104.752v-52.928c0-4.143-3.357-7.5-7.5-7.5s-7.5 3.357-7.5 7.5v52.928c0 4.143 3.357 7.5 7.5 7.5s7.5-3.357 7.5-7.5z"></path><path d="m403.476 109.079 13.892-19.666 13.88 19.664c1.461 2.07 3.778 3.176 6.134 3.176 1.494 0 3.004-.446 4.318-1.374 3.384-2.389 4.19-7.068 1.802-10.452l-16.95-24.013 14.314-20.262c2.39-3.383 1.585-8.062-1.799-10.453s-8.062-1.583-10.453 1.799l-11.241 15.912-11.231-15.91c-2.388-3.383-7.065-4.192-10.452-1.802-3.384 2.389-4.19 7.068-1.802 10.452l14.301 20.26-16.965 24.015c-2.39 3.383-1.585 8.062 1.799 10.453 1.314.929 2.825 1.375 4.32 1.375 2.353 0 4.671-1.106 6.133-3.174z"></path><path d="m297.344 112.252c4.143 0 7.5-3.357 7.5-7.5v-45.428h7.212c4.143 0 7.5-3.357 7.5-7.5s-3.357-7.5-7.5-7.5h-29.311c-4.143 0-7.5 3.357-7.5 7.5s3.357 7.5 7.5 7.5h7.099v45.428c0 4.143 3.357 7.5 7.5 7.5z"></path><path d="m106.741 255.724c-4.142 0-7.5 3.357-7.5 7.5v4.75c0 4.143 3.358 7.5 7.5 7.5s7.5-3.357 7.5-7.5v-4.75c0-4.143-3.358-7.5-7.5-7.5z"></path><path d="m162.13 255.724c-4.142 0-7.5 3.357-7.5 7.5v4.75c0 4.143 3.358 7.5 7.5 7.5s7.5-3.357 7.5-7.5v-4.75c0-4.143-3.358-7.5-7.5-7.5z"></path><path d="m137.087 293.578c-.738.531-1.786 1.163-2.651 1.217-.699-.044-1.646-.473-2.68-1.217-3.364-2.418-8.05-1.651-10.468 1.712-2.418 3.362-1.652 8.049 1.711 10.468 3.661 2.632 7.478 3.991 11.343 4.039.031.001.062.001.094.001s.062 0 .094-.001c3.846-.048 7.653-1.407 11.314-4.039 3.363-2.419 4.129-7.105 1.711-10.468s-7.103-4.129-10.468-1.712z"></path><path d="m367.966 230.433c-12.864-8.482-32.923-8.459-46.556 11.646l-46.833 69.062-63.79 27.988h-30.726v-14.957c23.039-16.283 39.657-41.728 39.657-64.143v-20.877c17.952-13.042 21.221-39.242 18.029-60.355-2.444-16.164-9.38-34.36-21.519-36.952-3.614-.769-10.546-.708-16.388 8.392-10.166 15.842-26.014 15.272-72.401 9.39-3.791-.479-7.751-.987-11.899-1.525-23.804-3.038-39.32 7.421-48.146 16.723-14.536 15.32-21.812 39.678-18.242 60.845v24.361c0 22.416 16.619 47.861 39.657 64.144v14.957h-1.287c-23.587 0-45.89 10.148-62.8 28.575-15.711 17.118-24.722 39.239-24.722 60.689v75.461c0 4.143 3.358 7.5 7.5 7.5h226.772c4.142 0 7.5-3.357 7.5-7.5v-29.206c0-4.143-3.358-7.5-7.5-7.5s-7.5 3.357-7.5 7.5v21.706h-164.15v-56.595c0-4.143-3.358-7.5-7.5-7.5s-7.5 3.357-7.5 7.5v56.595h-32.622v-67.961c0-35.058 31.015-74.267 72.522-74.267h4.563c9.217 13.624 25.629 21.605 44.002 21.114 17.699-.486 32.913-8.453 40.909-21.114h35.364c1.038 0 2.063-.215 3.013-.632l67.21-29.489c1.294-.567 2.4-1.489 3.193-2.659l32.589-48.058 28.153 19.591-44.303 64.022-71.885 44.385c-2.212 1.366-3.56 3.781-3.56 6.382v29.461c0 4.143 3.358 7.5 7.5 7.5s7.5-3.357 7.5-7.5v-25.277l69.659-43.011c.88-.544 1.639-1.264 2.227-2.114l62.646-90.531c.051-.072.1-.146.146-.22 11.823-18.434 4.681-36.866-8.482-45.546zm-289.69-45.286c6.438-6.785 17.802-14.41 35.352-12.17 4.147.538 8.124 1.048 11.928 1.529 44.134 5.599 70.772 8.976 86.908-16.168.467-.728.853-1.194 1.132-1.486 3.252 2.487 9.076 14.469 10.099 31.574.42 7.037.587 30.339-14.255 39.554-38.084 7.998-53.85 1.728-69.089-4.347-17.8-7.096-34.686-13.817-77.087.994.031-14.342 5.643-29.605 15.012-39.48zm86.786 159.662c-4.986 9.069-16.315 15.082-29.387 15.44-13.882.394-25.646-5.439-31.866-15.638v-11.63c3.135 1.487 6.336 2.795 9.584 3.898 7.761 2.644 14.395 3.965 21.032 3.965 6.635 0 13.274-1.321 21.047-3.963 3.25-1.104 6.453-2.413 9.59-3.9zm-14.416-22.13c-12.283 4.176-20.16 4.177-32.421-.001-28.805-9.785-54.072-39.061-54.072-62.648v-19.79c40.177-14.817 54.34-9.172 70.644-2.673 15.462 6.164 32.835 13.091 69.922 6.604v15.857c0 23.59-25.267 52.865-54.073 62.651zm213.245-54.9-8.835 12.768-28.269-19.672 7.038-10.378c8.512-12.551 19.263-11.909 25.884-7.542 7.008 4.622 11.004 14.082 4.182 24.824z"></path></g></svg>