<svg xmlns="http://www.w3.org/2000/svg" id="Layer_1" viewBox="0 0 512 512"><path d="m114.57 202.301 116.343-.001-6.531 19.968c-1.554 4.754.121 9.923 4.168 12.862 4.046 2.938 9.479 2.934 13.519-.014l27.669-20.185 27.669 20.184c2.023 1.477 4.396 2.215 6.769 2.215 2.365 0 4.73-.733 6.75-2.201 4.048-2.94 5.723-8.11 4.167-12.863l-10.646-32.553 27.746-20.078c4.052-2.931 5.737-8.097 4.191-12.856-1.544-4.749-5.931-7.935-10.919-7.935-.008 0-.018 0-.026 0l-34.25.065-10.521-32.594c-1.537-4.759-5.929-7.957-10.93-7.957-5 0-9.392 3.197-10.931 7.958l-7.617 23.598c-8.429-7.957-18.269-14.045-28.988-18.003 10.688-8.716 17.529-21.98 17.529-36.816 0-26.189-21.307-47.496-47.496-47.496s-47.496 21.307-47.496 47.496c0 14.848 6.853 28.121 17.556 36.837-29.887 11.029-52.109 38.137-55.681 71.518-.242 2.257.487 4.51 2.004 6.199 1.519 1.687 3.682 2.652 5.952 2.652zm155.169-67.762 7.237 22.419c1.537 4.763 5.927 7.958 10.931 7.958h.022l23.558-.045-19.085 13.81c-4.061 2.938-5.742 8.112-4.184 12.876l7.323 22.392-19.032-13.884c-4.049-2.955-9.49-2.955-13.539 0l-19.033 13.884 5.634-17.226c.007-.023.016-.047.023-.07l1.667-5.096c1.558-4.763-.123-9.938-4.183-12.876l-19.085-13.811 23.558.045h.022c3.774 0 7.198-1.82 9.312-4.758.099-.136.19-.277.28-.417.557-.849 1.014-1.778 1.338-2.782zm-108.998-49.444c0-17.367 14.129-31.496 31.496-31.496s31.496 14.129 31.496 31.496c0 17.359-14.116 31.482-31.472 31.495-.008 0-.017 0-.025 0-.007 0-.013 0-.02 0-17.357-.011-31.475-14.135-31.475-31.495zm31.474 47.495c.007 0 .014.001.021.001.008 0 .016-.001.024-.001 16.743.006 32.484 5.817 44.955 16.298l-23.176-.044c-.009 0-.017 0-.026 0-4.991 0-9.377 3.186-10.922 7.936-1.546 4.759.139 9.925 4.19 12.855l23.03 16.665-106.27.001c7.412-31.166 35.297-53.701 68.174-53.711zm137.864 119.905c0 4.418-3.582 8-8 8h-207.456c-4.418 0-8-3.582-8-8s3.582-8 8-8h207.456c4.419 0 8 3.581 8 8zm137.942 119.022c5.242-10.37 3.071-22.68-5.401-30.633l-9.852-9.246c-1.537-1.443-2.398-2.935-2.879-4.988l-3.082-13.155c-2.649-11.313-12.225-19.349-23.828-19.995l-13.489-.75c-2.106-.117-3.725-.706-5.412-1.969l-8.515-6.373v-209.914c0-2.358-.464-4.593-1.349-6.652-.124-.306-.263-.603-.422-.889-.798-1.582-1.846-3.053-3.162-4.369l-49.651-49.65c-1.317-1.317-2.789-2.366-4.373-3.164-.283-.157-.577-.295-.88-.418-2.061-.887-4.298-1.352-6.657-1.352h-271.086c-9.287 0-16.843 7.556-16.843 16.843v420.939c0 9.287 7.556 16.843 16.843 16.843h242.157l-4.619 9.921c-1.512 3.25-1.098 7.038 1.084 9.888 2.184 2.85 5.733 4.237 9.271 3.616l18.739-3.273 9.558 16.448c1.729 2.975 4.876 4.775 8.291 4.775.147 0 .296-.003.444-.01 3.584-.164 6.751-2.285 8.265-5.538l18.771-40.318 4.885-1.476c2.019-.61 3.741-.61 5.759 0l4.884 1.476 18.771 40.318c1.514 3.252 4.681 5.374 8.265 5.537.148.007.296.01.444.01 3.415 0 6.563-1.801 8.292-4.776l9.558-16.447 18.734 3.273c3.535.621 7.09-.766 9.274-3.616 2.182-2.847 2.598-6.636 1.083-9.89l-18.817-40.417 5.901-2.527c10.682-4.575 16.932-15.4 15.552-26.938l-1.603-13.416c-.25-2.094.049-3.791 1-5.672zm-99.773-308.686h-27.517v-27.517zm-310.265 383.794c-.449 0-.843-.394-.843-.843v-420.939c0-.449.394-.843.843-.843h266.748v42.41c0 6.849 5.572 12.421 12.421 12.421h42.41v198.706c-6.058-.44-12.228 1.272-17.407 5.148l-10.817 8.096c-1.688 1.264-3.307 1.853-5.412 1.97l-13.491.75c-1.217.068-2.406.235-3.573.46-1.413-2.264-3.919-3.775-6.785-3.775h-207.454c-4.418 0-8 3.582-8 8s3.582 8 8 8h196.916c-1.307 2.227-2.313 4.674-2.93 7.309l-3.082 13.155c-.481 2.053-1.342 3.544-2.879 4.988l-4.518 4.24h-183.507c-4.418 0-8 3.582-8 8s3.582 8 8 8h171.194c-2.041 6.322-1.608 13.336 1.578 19.639l5.082 10.053h-177.854c-4.418 0-8 3.582-8 8s3.582 8 8 8h178.872l-.609 5.092c-1.379 11.538 4.87 22.363 15.552 26.938l5.901 2.527-6.75 14.498zm283.862 33.956-6.197-10.664c-1.683-2.896-4.99-4.435-8.294-3.861l-12.15 2.123 12.225-26.258 5.237 8.008c4.233 6.472 10.853 10.523 18.085 11.522zm86.217-14.525c-3.304-.577-6.61.964-8.294 3.861l-6.197 10.665-8.911-19.141c7.234-.999 13.856-5.04 18.09-11.513l5.237-8.008 12.225 26.258zm25.68-101.758-6.095 12.058c-2.381 4.71-3.234 9.547-2.607 14.789l1.603 13.416c.537 4.494-1.804 8.549-5.964 10.331l-12.421 5.319c-4.851 2.078-8.614 5.236-11.502 9.653l-7.395 11.307c-2.477 3.788-6.876 5.389-11.21 4.08l-12.932-3.908c-5.051-1.527-9.964-1.526-15.017 0l-12.934 3.909c-4.333 1.309-8.733-.292-11.209-4.08l-7.395-11.308c-2.889-4.417-6.652-7.575-11.504-9.653l-12.42-5.319c-4.16-1.782-6.501-5.837-5.964-10.331l1.604-13.416c.626-5.24-.227-10.077-2.607-14.789l-6.095-12.058c-2.042-4.039-1.229-8.65 2.071-11.748l9.852-9.246c3.849-3.612 6.305-7.866 7.508-13.004l3.082-13.155c1.032-4.407 4.62-7.417 9.139-7.668l13.49-.75c5.271-.293 9.886-1.973 14.111-5.136l10.817-8.097c1.812-1.356 3.888-2.034 5.964-2.034s4.153.678 5.964 2.034l10.816 8.097c4.225 3.162 8.84 4.842 14.111 5.136l13.489.75c4.52.251 8.107 3.261 9.139 7.668l3.082 13.155c1.204 5.139 3.66 9.393 7.508 13.005l9.852 9.246c3.297 3.097 4.11 7.709 2.069 11.747zm-76.034-48.706c-29.768 0-53.986 24.218-53.986 53.986 0 29.769 24.218 53.987 53.986 53.987s53.986-24.219 53.986-53.987c0-29.767-24.218-53.986-53.986-53.986zm0 91.974c-20.946 0-37.986-17.041-37.986-37.987s17.041-37.986 37.986-37.986 37.986 17.041 37.986 37.986c0 20.946-17.04 37.987-37.986 37.987z"></path></svg>