<svg xmlns="http://www.w3.org/2000/svg" xmlns:svg="http://www.w3.org/2000/svg" id="svg6486" xml:space="preserve" width="682.66669" height="682.66669" viewBox="0 0 682.66669 682.66669"><defs id="defs6490"><clipPath clipPathUnits="userSpaceOnUse" id="clipPath6500"><path d="M 0,512 H 512 V 0 H 0 Z" id="path6498"></path></clipPath></defs><g id="g6492" transform="matrix(1.3333333,0,0,-1.3333333,0,682.66667)"><g id="g6494"><g id="g6496" clip-path="url(#clipPath6500)"><g id="g6502" transform="translate(21.916,447.2559)"><path d="m 0,0 v 28.949 c 0,15.628 12.668,28.295 28.298,28.295 h 312.444 c 15.629,0 28.298,-12.667 28.298,-28.295 v -8.632" style="fill:none;stroke:#000000;stroke-width:15;stroke-linecap:round;stroke-linejoin:round;stroke-miterlimit:10;stroke-dasharray:none;stroke-opacity:1" id="path6504"></path></g><g id="g6506" transform="translate(390.9561,187.0449)"><path d="m 0,0 v -151.25 c 0,-15.628 -12.669,-28.295 -28.298,-28.295 h -312.444 c -15.63,0 -28.298,12.667 -28.298,28.295 v 378.434" style="fill:none;stroke:#000000;stroke-width:15;stroke-linecap:round;stroke-linejoin:round;stroke-miterlimit:10;stroke-dasharray:none;stroke-opacity:1" id="path6508"></path></g><g id="g6510" transform="translate(188.5225,364.1504)"><path d="m 0,0 -13.603,-4.929 c -10.96,-3.974 -19.011,-13.429 -21.21,-24.872 l -2.941,-15.406 c -2.188,-11.383 6.545,-21.941 18.139,-21.941 h 37.744 37.312 c 11.504,0 20.218,10.398 18.19,21.72 l -2.74,15.317 C 68.813,-18.488 60.702,-8.863 49.609,-4.838 L 35.485,0.281" style="fill:none;stroke:#000000;stroke-width:15;stroke-linecap:round;stroke-linejoin:round;stroke-miterlimit:10;stroke-dasharray:none;stroke-opacity:1" id="path6512"></path></g><g id="g6514" transform="translate(216.6494,383.2207)"><path d="m 0,0 h 7.358 v -18.789 -4.988 -0.011 c -10.169,-8.872 -25.326,-8.872 -35.485,0.011 V -19.07 0 h 7.117" style="fill:none;stroke:#000000;stroke-width:15;stroke-linecap:round;stroke-linejoin:round;stroke-miterlimit:10;stroke-dasharray:none;stroke-opacity:1" id="path6516"></path></g><g id="g6518" transform="translate(234.4492,430.1201)"><path d="m 0,0 v -20.157 c 0,-15.806 -12.937,-29.118 -28.742,-28.813 -15.317,0.295 -27.637,12.801 -27.637,28.183 V 0 c 0,15.566 12.621,28.187 28.19,28.187 C -12.62,28.187 0,15.566 0,0 Z" style="fill:none;stroke:#000000;stroke-width:15;stroke-linecap:round;stroke-linejoin:round;stroke-miterlimit:10;stroke-dasharray:none;stroke-opacity:1" id="path6520"></path></g><g id="g6522" transform="translate(200.2021,426.0947)"><path d="m 0,0 c 4.993,-3.502 15.326,-3.344 25.895,0.888 2.315,0.926 4.487,1.988 6.479,3.14" style="fill:none;stroke:#000000;stroke-width:15;stroke-linecap:round;stroke-linejoin:round;stroke-miterlimit:10;stroke-dasharray:none;stroke-opacity:1" id="path6524"></path></g><g id="g6526" transform="translate(88.2637,168.5957)"><path d="M 0,0 H 233.57" style="fill:none;stroke:#000000;stroke-width:15;stroke-linecap:round;stroke-linejoin:round;stroke-miterlimit:10;stroke-dasharray:none;stroke-opacity:1" id="path6528"></path></g><g id="g6530" transform="translate(88.2637,128.1553)"><path d="M 0,0 H 233.57" style="fill:none;stroke:#000000;stroke-width:15;stroke-linecap:round;stroke-linejoin:round;stroke-miterlimit:10;stroke-dasharray:none;stroke-opacity:1" id="path6532"></path></g><g id="g6534" transform="translate(88.2637,87.7158)"><path d="M 0,0 H 233.57" style="fill:none;stroke:#000000;stroke-width:15;stroke-linecap:round;stroke-linejoin:round;stroke-miterlimit:10;stroke-dasharray:none;stroke-opacity:1" id="path6536"></path></g><g id="g6538" transform="translate(88.2637,47.2754)"><path d="M 0,0 H 233.57" style="fill:none;stroke:#000000;stroke-width:15;stroke-linecap:round;stroke-linejoin:round;stroke-miterlimit:10;stroke-dasharray:none;stroke-opacity:1" id="path6540"></path></g><g id="g6542" transform="translate(88.2637,249.4756)"><path d="M 0,0 H 233.57" style="fill:none;stroke:#000000;stroke-width:15;stroke-linecap:round;stroke-linejoin:round;stroke-miterlimit:10;stroke-dasharray:none;stroke-opacity:1" id="path6544"></path></g><g id="g6546" transform="translate(88.2637,209.0361)"><path d="M 0,0 H 233.57" style="fill:none;stroke:#000000;stroke-width:15;stroke-linecap:round;stroke-linejoin:round;stroke-miterlimit:10;stroke-dasharray:none;stroke-opacity:1" id="path6548"></path></g><g id="g6550" transform="translate(68.0986,168.5957)"><path d="m 0,0 c 0,-4.157 -3.371,-7.528 -7.529,-7.528 -4.159,0 -7.529,3.371 -7.529,7.528 0,4.157 3.37,7.527 7.529,7.527 C -3.371,7.527 0,4.157 0,0" style="fill:#000000;fill-opacity:1;fill-rule:nonzero;stroke:none" id="path6552"></path></g><g id="g6554" transform="translate(68.0986,249.4756)"><path d="m 0,0 c 0,-4.157 -3.371,-7.527 -7.529,-7.527 -4.159,0 -7.529,3.37 -7.529,7.527 0,4.158 3.37,7.528 7.529,7.528 C -3.371,7.528 0,4.158 0,0" style="fill:#000000;fill-opacity:1;fill-rule:nonzero;stroke:none" id="path6556"></path></g><g id="g6558" transform="translate(68.0986,209.0361)"><path d="m 0,0 c 0,-4.158 -3.371,-7.528 -7.529,-7.528 -4.159,0 -7.529,3.37 -7.529,7.528 0,4.157 3.37,7.527 7.529,7.527 C -3.371,7.527 0,4.157 0,0" style="fill:#000000;fill-opacity:1;fill-rule:nonzero;stroke:none" id="path6560"></path></g><g id="g6562" transform="translate(68.0986,128.1553)"><path d="m 0,0 c 0,-4.157 -3.371,-7.527 -7.529,-7.527 -4.159,0 -7.529,3.37 -7.529,7.527 0,4.158 3.37,7.528 7.529,7.528 C -3.371,7.528 0,4.158 0,0" style="fill:#000000;fill-opacity:1;fill-rule:nonzero;stroke:none" id="path6564"></path></g><g id="g6566" transform="translate(68.0986,87.7158)"><path d="m 0,0 c 0,-4.158 -3.371,-7.528 -7.529,-7.528 -4.159,0 -7.529,3.37 -7.529,7.528 0,4.157 3.37,7.527 7.529,7.527 C -3.371,7.527 0,4.157 0,0" style="fill:#000000;fill-opacity:1;fill-rule:nonzero;stroke:none" id="path6568"></path></g><g id="g6570" transform="translate(68.0986,47.2754)"><path d="m 0,0 c 0,-4.157 -3.371,-7.528 -7.529,-7.528 -4.159,0 -7.529,3.371 -7.529,7.528 0,4.157 3.37,7.527 7.529,7.527 C -3.371,7.527 0,4.157 0,0" style="fill:#000000;fill-opacity:1;fill-rule:nonzero;stroke:none" id="path6572"></path></g><g id="g6574" transform="translate(356.3936,288.4697)"><path d="m 0,0 v -119.15 c 0,-3.353 3.854,-5.23 6.495,-3.163 l 25.588,20.035 c 0.723,0.572 1.605,0.853 2.48,0.853 0.873,0 1.756,-0.281 2.479,-0.853 l 25.588,-20.035 c 2.64,-2.067 6.505,-0.19 6.505,3.163 v 83.697" style="fill:none;stroke:#000000;stroke-width:15;stroke-linecap:round;stroke-linejoin:round;stroke-miterlimit:10;stroke-dasharray:none;stroke-opacity:1" id="path6576"></path></g><g id="g6578" transform="translate(490.084,368.4619)"><path d="m 0,0 c 0,-12.622 -14.099,-22.351 -18.65,-33.327 -4.719,-11.378 -1.808,-28.183 -10.383,-36.758 -8.576,-8.574 -25.383,-5.663 -36.762,-10.381 -10.977,-4.552 -20.708,-18.648 -33.331,-18.648 -12.624,0 -22.353,14.096 -33.331,18.648 -11.38,4.719 -28.187,1.807 -36.763,10.382 -8.575,8.574 -5.663,25.379 -10.382,36.757 -4.551,10.976 -18.65,20.705 -18.65,33.327 0,12.622 14.099,22.351 18.65,33.327 4.719,11.378 1.807,28.183 10.383,36.758 8.576,8.574 25.383,5.663 36.762,10.381 10.978,4.552 20.707,18.648 33.331,18.648 12.624,0 22.354,-14.096 33.331,-18.648 11.379,-4.719 28.187,-1.807 36.762,-10.382 8.576,-8.574 5.664,-25.379 10.383,-36.757 C -14.099,22.351 0,12.622 0,0 Z" style="fill:none;stroke:#000000;stroke-width:15;stroke-linecap:round;stroke-linejoin:round;stroke-miterlimit:10;stroke-dasharray:none;stroke-opacity:1" id="path6580"></path></g><g id="g6582" transform="translate(392.5977,417.3838)"><path d="m 0,0 15.888,-23.729 c 0.26,-0.389 0.651,-0.673 1.102,-0.801 l 27.48,-7.775 c 1.351,-0.383 1.882,-2.015 1.013,-3.119 l -17.661,-22.44 c -0.29,-0.369 -0.438,-0.828 -0.421,-1.297 l 1.096,-28.533 c 0.054,-1.405 -1.335,-2.413 -2.653,-1.928 l -26.802,9.859 c -0.44,0.162 -0.923,0.162 -1.363,0 l -26.802,-9.859 c -1.318,-0.485 -2.708,0.523 -2.653,1.928 l 1.095,28.533 c 0.018,0.469 -0.131,0.928 -0.422,1.297 l -17.66,22.44 c -0.869,1.104 -0.338,2.736 1.014,3.119 l 27.479,7.775 c 0.452,0.128 0.842,0.412 1.103,0.801 L -3.279,0 C -2.498,1.167 -0.781,1.167 0,0 Z" style="fill:none;stroke:#000000;stroke-width:15;stroke-linecap:round;stroke-linejoin:round;stroke-miterlimit:10;stroke-dasharray:none;stroke-opacity:1" id="path6584"></path></g></g></g></g></svg>