<svg xmlns="http://www.w3.org/2000/svg" id="Layer_1" height="512" viewBox="0 0 512 512" width="512"><g><path d="m511.4 307.1-.4-2.1-3.9-19.8-10.3-52c0-.2-.1-.4-.1-.5l-.3-1.5h-.1c-3.4-12.5-14.5-21.1-27.6-21.1h-37.3l-55.1-79c-1.5-2.1-3.9-3.4-6.6-3.4h-88.4v-18.7c0-12.3-10-22.3-22.2-22.3h-29.7c-12.3 0-22.3 10-22.3 22.3v18.7h-112.3c-3.3 0-6.3 2.1-7.5 5.2l-28.6 77.2h-27.8c-17 0-30.9 13.9-30.9 30.9v.4.6c0 .9.1 1.7.4 2.5l12.6 90c.6 4 3.9 6.9 7.9 6.9h41.2c-.9 4.5-1.4 9.1-1.4 13.8 0 38.7 31.5 70.2 70.2 70.2s70.2-31.5 70.2-70.2c0-4.7-.5-9.3-1.4-13.8h115c-.9 4.5-1.4 9.1-1.4 13.8 0 38.7 31.5 70.2 70.2 70.2s70.2-31.5 70.2-70.2c0-4.7-.5-9.3-1.4-13.8h30.7c8.7 0 16.6-3.7 22.1-10.4 5.9-6.9 8-15.3 6.3-23.9zm-28.1-60 7.8 39.6.4 2.2h-15.2c-11.5 0-20.9-9.4-20.9-20.9s9.4-20.9 20.9-20.9zm-71.4-37h-158.2v-66.4h111.8zm-188.8-101.1c0-3.4 2.9-6.3 6.3-6.3h29.7c3.4 0 6.2 2.8 6.2 6.3v18.7h-42.2zm-122.7 34.7h137.3v66.4h-162zm-83.1 106.2h23.4c.7 0 2 1.3 2 3.4v12.4c0 2.1-1.3 3.4-2 3.4h-20.6zm10.6 75.4-5.6-40.1h18.5c9.9 0 18-8.7 18-19.5v-12.4c0-10.7-8.1-19.5-18-19.5h-23c2.5-4.7 7.4-7.8 13.1-7.8h33.3.1 58.6v59.3c-24.6 2.9-45.3 18.4-55.4 39.9h-39.6zm103.1 84c-29.9 0-54.2-24.3-54.2-54.2s24.3-54.2 54.2-54.2 54.2 24.3 54.2 54.2c.1 29.8-24.3 54.2-54.2 54.2zm252.8 0c-29.9 0-54.2-24.3-54.2-54.2s24.3-54.2 54.2-54.2 54.2 24.3 54.2 54.2c0 29.8-24.3 54.2-54.2 54.2zm109.3-88.7c-2.6 3.1-5.7 4.6-9.7 4.6h-36c-11.2-23.9-35.5-40.4-63.6-40.4s-52.3 16.6-63.6 40.4h-125.6c-10.2-21.6-31-37.2-55.7-40v-59.2h329.8c4.1 0 7.8 1.9 10.1 5h-2.5c-20.4 0-36.9 16.6-36.9 36.9s16.6 37.1 36.9 37.1h18.4l1 5.2c.8 3.9-.1 7.4-2.6 10.4z"></path><path d="m131 322.5c-17.9 0-32.5 14.6-32.5 32.5s14.6 32.5 32.5 32.5 32.5-14.6 32.5-32.5c.1-17.9-14.5-32.5-32.5-32.5zm0 49.1c-9.1 0-16.5-7.4-16.5-16.5s7.4-16.5 16.5-16.5 16.5 7.4 16.5 16.5c.1 9-7.3 16.5-16.5 16.5z"></path><path d="m383.8 322.5c-17.9 0-32.5 14.6-32.5 32.5s14.6 32.5 32.5 32.5 32.5-14.6 32.5-32.5-14.6-32.5-32.5-32.5zm0 49.1c-9.1 0-16.5-7.4-16.5-16.5s7.4-16.5 16.5-16.5 16.5 7.4 16.5 16.5c0 9-7.4 16.5-16.5 16.5z"></path><path d="m207.3 246.2h-21.1c-4.4 0-8 3.6-8 8s3.6 8 8 8h2.5v21.7c0 4.4 3.6 8 8 8s8-3.6 8-8v-21.7h2.5c4.4 0 8-3.6 8-8 .1-4.4-3.5-8-7.9-8z"></path><path d="m243.2 253.2c-1.2-3-4.2-5-7.4-5s-6.2 2-7.4 5l-10.5 25.7c-1.7 4.1.3 8.8 4.4 10.4 4.1 1.7 8.8-.3 10.4-4.4l.3-.8h5.6l.3.8c1.3 3.1 4.3 5 7.4 5 1 0 2-.2 3-.6 4.1-1.7 6.1-6.3 4.4-10.4z"></path><path d="m293.9 249.7c-3.6-2.6-8.6-1.8-11.2 1.8l-2.9 4-2.9-4c-2.6-3.6-7.6-4.4-11.2-1.8s-4.4 7.6-1.8 11.2l5.9 8.2-5.9 8.2c-2.6 3.6-1.8 8.6 1.8 11.2 1.4 1 3.1 1.5 4.7 1.5 2.5 0 4.9-1.1 6.5-3.3l2.9-4 2.9 4c1.6 2.2 4 3.3 6.5 3.3 1.6 0 3.3-.5 4.7-1.5 3.6-2.6 4.4-7.6 1.8-11.2l-5.9-8.2 5.9-8.2c2.6-3.5 1.8-8.6-1.8-11.2z"></path><path d="m314.5 246.2c-4.4 0-8 3.6-8 8v29.7c0 4.4 3.6 8 8 8s8-3.6 8-8v-29.7c0-4.4-3.6-8-8-8z"></path></g></svg>