<svg xmlns="http://www.w3.org/2000/svg" id="Layer_1" viewBox="0 0 512 512" data-name="Layer 1"><path d="m491.48 325.636c-4.594-7.967-12.042-13.674-20.972-16.069-8.931-2.396-18.229-1.184-26.182 3.413l-3.527 2.036c-1.625-3.184-3.725-6.11-6.277-8.661-6.505-6.506-15.174-10.088-24.411-10.088s-17.906 3.582-24.41 10.087l-.149.149c-.317-.345-.623-.702-.955-1.034-13.474-13.438-35.372-13.435-48.814.006l-23.721 23.721-94.341-25.285c-9.15-2.955-20.384-1.785-28.682 3.003l-70.932 40.943-5.882-10.187c-5.671-9.783-18.23-13.138-27.983-7.484l-56.664 32.711c-5.395 3.114-9.271 8.609-10.371 14.7-.951 5.272.306 10.332 3.541 14.249l85.718 103.746c4.921 5.959 11.371 9.131 17.741 9.131 3.29 0 6.559-.847 9.583-2.592l37.275-21.515c9.801-5.656 13.176-18.226 7.524-28.02l-5.865-10.156 10.025-5.794c4.594-2.658 6.396-2.606 13.372-1.07l101.819 27.279c3.643.987 7.348 1.476 11.035 1.476 7.35 0 14.633-1.94 21.227-5.741l148.617-85.803c7.967-4.595 13.674-12.042 16.07-20.972s1.184-18.229-3.411-26.18zm-81.368-15.366c5.497 0 10.649 2.126 14.51 5.986 1.678 1.678 3.029 3.633 4.029 5.774l-87.899 50.747c.32-.819.598-1.665.854-2.524l47.925-47.925c.008-.008.015-.016.023-.023l6.049-6.049c3.86-3.859 9.012-5.985 14.508-5.985zm-64.427 5.107c7.99-7.989 21.01-7.989 29.018 0 .329.329.642.674.948 1.027l-34.553 34.552c-2.508-7.02-7.494-13.065-14.191-16.802l18.778-18.778zm-181.62 153.11-37.275 21.515c-4.462 2.578-9.021-2.714-9.528-3.328l-85.719-103.747c-.582-.704-.769-1.661-.556-2.844.36-1.994 1.802-4.026 3.59-5.059l56.675-32.718c.986-.571 2.079-.841 3.167-.841 2.259 0 4.494 1.165 5.683 3.217l66.358 114.915c1.792 3.104.717 7.093-2.396 8.89zm317.301-120.301c-1.426 5.316-4.814 9.744-9.544 12.472l-148.616 85.802c-6.647 3.832-14.318 4.854-21.621 2.875l-101.991-27.325c-.101-.027-.202-.052-.303-.074-8.341-1.841-14.487-2.655-23.551 2.589l-10.017 5.79-40.614-70.333 70.929-40.941c4.901-2.825 12.094-3.554 17.49-1.77.127.042.256.081.386.115l98.092 26.291c.213.068.428.126.646.173l3.528.946c9.14 2.461 14.59 11.879 12.151 20.991-2.407 8.976-11.466 14.1-20.633 11.658-.067-.018-.134-.027-.2-.043l-76.713-20.313c-3.735-.988-7.57 1.238-8.561 4.977-.99 3.738 1.238 7.57 4.977 8.561l77.188 20.438c.051.014.103.018.154.03l11.832 3.15c9.014 2.354 14.124.613 25.905-6.183l97.964-56.557c.218-.112.43-.233.633-.365l10.455-6.036c4.713-2.726 10.235-3.44 15.549-2.015 5.316 1.427 9.745 4.814 12.473 9.546 2.724 4.715 3.439 10.236 2.014 15.55zm-391.077 44.03c1.935 3.349.788 7.631-2.56 9.565-1.103.638-2.308.94-3.496.94-2.419 0-4.772-1.255-6.069-3.5l-11.905-20.607c-1.935-3.349-.788-7.631 2.56-9.565 3.348-1.936 7.631-.789 9.565 2.56zm167.37-234.082c.917 1.473 1.155 2.809.796 4.483l-6.267 29.488c-2.128 10.078 3.642 20.071 13.415 23.242l28.678 9.331c1.615.521 2.684 1.413 3.476 2.914l14.144 26.617c3.579 6.737 10.468 10.651 17.693 10.65 2.511 0 5.063-.473 7.529-1.464l27.925-11.3c1.585-.634 3.011-.632 4.578-.011l27.949 11.321c9.563 3.827 20.408-.127 25.225-9.196l14.156-26.638c.796-1.509 1.823-2.375 3.455-2.9l28.683-9.323c9.78-3.173 15.549-13.166 13.418-23.253l-6.268-29.495c-.356-1.659-.118-2.995.793-4.458l15.954-25.531c5.48-8.74 3.478-20.121-4.658-26.473l-23.708-18.501c-1.376-1.094-2.062-2.275-2.296-3.968l-4.195-29.849c-1.432-10.198-10.275-17.638-20.592-17.276l-30.079 1.076c-1.722.052-3.013-.414-4.303-1.579l-22.394-20.154-.006-.006c-7.644-6.863-19.172-6.864-26.82.003l-22.462 20.19c-1.248 1.139-2.507 1.602-4.213 1.547l-30.145-1.077c-10.289-.394-19.119 7.077-20.551 17.275l-4.197 29.866c-.231 1.671-.917 2.846-2.279 3.916l-23.724 18.537c-8.116 6.336-10.136 17.708-4.687 26.468l15.978 25.525zm-2.672-40.957 23.743-18.551c4.193-3.297 6.791-7.8 7.51-13.006l4.195-29.851c.433-3.087 3.08-5.346 6.196-5.229l30.157 1.078c5.328.186 10.216-1.626 14.09-5.164l22.419-20.151c2.31-2.073 5.794-2.076 8.105 0l22.38 20.142c3.994 3.606 8.744 5.335 14.156 5.174l30.09-1.076c3.111-.14 5.804 2.142 6.237 5.229l4.193 29.834c.719 5.201 3.297 9.696 7.503 13.036l23.753 18.537c2.458 1.92 3.064 5.357 1.404 8.006l-15.965 25.549c-2.814 4.519-3.714 9.641-2.606 14.795l6.262 29.472c.645 3.052-1.092 6.074-4.044 7.032l-28.668 9.318c-5.06 1.63-9.047 4.981-11.52 9.673l-14.146 26.619c-1.455 2.739-4.748 3.93-7.629 2.775l-27.967-11.328c-2.453-.974-4.972-1.461-7.491-1.461-2.531 0-5.062.492-7.526 1.479l-27.935 11.304c-2.885 1.161-6.163-.029-7.619-2.77l-14.134-26.599c-2.48-4.704-6.477-8.056-11.539-9.686l-28.664-9.327c-2.948-.956-4.686-3.979-4.043-7.022l6.262-29.464c1.11-5.17.21-10.291-2.612-14.824l-15.977-25.523c-1.648-2.649-1.036-6.097 1.426-8.019zm112.364 103.333c45.609 0 82.715-37.105 82.715-82.715s-37.105-82.744-82.715-82.744-82.743 37.119-82.743 82.744 37.118 82.715 82.743 82.715zm0-151.455c37.888 0 68.712 30.837 68.712 68.74s-30.824 68.711-68.712 68.711-68.74-30.823-68.74-68.711 30.837-68.74 68.74-68.74zm-41.376 71.281c-2.734-2.734-2.734-7.168 0-9.902 2.734-2.732 7.167-2.734 9.901 0l20.286 20.287 42.788-40.705c2.802-2.665 7.234-2.554 9.898.247 2.666 2.802 2.555 7.233-.247 9.899l-47.736 45.411c-1.353 1.287-3.09 1.929-4.825 1.929-1.794 0-3.586-.686-4.951-2.051l-25.115-25.115zm-301.188 79.518 10.293 1.002c1.788 6.061 4.217 11.919 7.26 17.505l-6.553 7.979c-1.983 2.415-2.126 5.852-.35 8.423 7.223 10.455 16.186 19.418 26.641 26.642 2.572 1.776 6.009 1.633 8.424-.35l7.979-6.554c5.587 3.044 11.445 5.473 17.504 7.26l1.002 10.294c.304 3.118 2.642 5.655 5.725 6.212 6.256 1.129 12.551 1.693 18.843 1.693s12.583-.565 18.825-1.694c3.082-.558 5.418-3.094 5.722-6.211l1.002-10.291c6.052-1.783 11.911-4.214 17.505-7.263l7.979 6.554c2.415 1.982 5.852 2.126 8.424.35 10.49-7.248 19.463-16.212 26.668-26.642 1.779-2.574 1.633-6.016-.356-8.431l-6.565-7.972c3.033-5.555 5.459-11.412 7.252-17.505l10.291-1.002c3.117-.304 5.654-2.641 6.211-5.723 2.261-12.498 2.261-25.173 0-37.671-.558-3.082-3.094-5.419-6.211-5.723l-10.289-1.002c-1.789-6.085-4.217-11.944-7.254-17.506l6.565-7.971c1.989-2.415 2.135-5.856.356-8.431-7.23-10.466-16.203-19.438-26.668-26.67-2.575-1.778-6.016-1.632-8.431.356l-7.971 6.565c-5.562-3.038-11.421-5.466-17.506-7.254l-1.002-10.29c-.304-3.117-2.64-5.653-5.722-6.211-12.483-2.26-25.157-2.26-37.668 0-3.083.557-5.421 3.094-5.725 6.212l-1.002 10.292c-6.093 1.793-11.951 4.22-17.505 7.252l-7.972-6.565c-2.414-1.988-5.856-2.135-8.431-.356-10.43 7.206-19.393 16.179-26.641 26.67-1.776 2.571-1.633 6.008.35 8.423l6.553 7.979c-3.048 5.593-5.478 11.452-7.262 17.505l-10.291 1.002c-3.117.304-5.654 2.641-6.211 5.723-2.261 12.498-2.261 25.173 0 37.671.558 3.082 3.094 5.419 6.211 5.723zm6.779-35.707 9.714-.945c2.988-.291 5.458-2.455 6.14-5.378 1.853-7.942 5.004-15.545 9.368-22.596 1.576-2.547 1.358-5.813-.543-8.128l-6.189-7.536c4.6-5.911 9.873-11.193 15.752-15.778l7.533 6.204c2.318 1.91 5.599 2.128 8.152.539 6.957-4.331 14.555-7.479 22.584-9.358 2.921-.684 5.083-3.152 5.374-6.139l.946-9.713c7.423-.912 14.887-.91 22.297-.002l.946 9.715c.291 2.988 2.455 5.458 5.378 6.14 8.01 1.868 15.607 5.017 22.579 9.357 2.552 1.59 5.833 1.372 8.152-.539l7.534-6.205c5.898 4.595 11.178 9.876 15.773 15.773l-6.206 7.534c-1.911 2.319-2.128 5.601-.539 8.152 4.341 6.972 7.489 14.568 9.358 22.579.682 2.923 3.152 5.087 6.14 5.378l9.714.945c.911 7.416.911 14.882 0 22.298l-9.714.945c-2.986.291-5.456 2.452-6.139 5.374-1.879 8.028-5.028 15.627-9.359 22.583-1.589 2.552-1.372 5.833.539 8.152l6.205 7.533c-4.585 5.879-9.867 11.151-15.778 15.752l-7.536-6.189c-2.315-1.899-5.581-2.117-8.128-.543-7.053 4.365-14.655 7.517-22.595 9.368-2.924.682-5.088 3.151-5.379 6.14l-.946 9.715c-7.409.909-14.874.909-22.297-.002l-.946-9.713c-.291-2.986-2.453-5.455-5.374-6.139-7.958-1.861-15.562-5.014-22.6-9.369-2.546-1.573-5.813-1.357-8.128.543l-7.535 6.188c-5.892-4.59-11.167-9.864-15.756-15.757l6.188-7.535c1.901-2.314 2.119-5.581.543-8.128-4.354-7.035-7.506-14.64-9.369-22.6-.684-2.922-3.153-5.083-6.139-5.374l-9.714-.945c-.911-7.416-.911-14.882 0-22.298zm91.723 53.173c24.133 0 43.767-19.634 43.767-43.768s-19.634-43.767-43.767-43.767-43.767 19.634-43.767 43.767 19.634 43.768 43.767 43.768zm0-73.53c16.412 0 29.764 13.352 29.764 29.763s-13.352 29.764-29.764 29.764-29.764-13.352-29.764-29.764 13.352-29.763 29.764-29.763z"></path></svg>