<svg xmlns="http://www.w3.org/2000/svg" viewBox="0 0 512 512" width="512" height="512"><g id="OUTLINE"><path d="M390.60938,55.87793A8.0014,8.0014,0,0,0,392,56H496V40H392.7002L257.39062,16.12207a7.98937,7.98937,0,0,0-5.18359.834l-208,112a8.00134,8.00134,0,0,0-3.06738,11.16016l9.04492,15.0752a39.85224,39.85224,0,0,0,51.49805,15.53418L235.24219,107.127a8.03842,8.03842,0,0,1,7.876.56641L285.57812,136H272a40.03,40.03,0,0,0-7.69482.75024C258.91235,136.25537,253.43066,136,248,136c-97.04688,0-176,78.95312-176,176v24a8.00039,8.00039,0,0,0,8,8h56.30371l-19.20019,16H16v16H120a7.99881,7.99881,0,0,0,5.12109-1.85449l43.54981-36.291A8.01226,8.01226,0,0,1,173.793,336H264a24.0275,24.0275,0,0,1-24,24H184v16h13.57812l62.42872,41.61914a24.10971,24.10971,0,0,0,23.63086,1.69922l133.55859-63.59863a23.90767,23.90767,0,0,1,30.89844,9.32129l4.73339,7.88867L254.6543,479.63867l-133.26368-23.5166A8.0014,8.0014,0,0,0,120,456H16v16H119.2998l135.30958,23.87793a7.99684,7.99684,0,0,0,5.18359-.834l208-112a8.00134,8.00134,0,0,0,3.06738-11.16016l-9.04492-15.0752a39.83,39.83,0,0,0-37.96582-19.27588A8.02515,8.02515,0,0,0,424,336V312a176.8549,176.8549,0,0,0-13.51709-67.698l25.229-13.21509-7.42382-14.17382L403.657,229.81494a177.57107,177.57107,0,0,0-40.77661-51.135L394.89648,152H496V136H392a7.99881,7.99881,0,0,0-5.12109,1.85449l-43.54981,36.291A8.01226,8.01226,0,0,1,338.207,176H248a24.0275,24.0275,0,0,1,24-24h56V136H314.42188L251.99316,94.38086a24.10971,24.10971,0,0,0-23.63086-1.69922L94.80371,156.28027A23.909,23.909,0,0,1,63.90527,146.959l-4.73339-7.88867L257.3457,32.36133ZM136,312v16H88V312a159.44844,159.44844,0,0,1,44.97119-111.09277l30.78174,37.37768A111.52833,111.52833,0,0,0,136,312Zm80,8H173.793a24.04549,24.04549,0,0,0-15.36426,5.5625L152,330.91968V312a95.98619,95.98619,0,0,1,180.75366-45.04517L271.94653,298.8064A31.97994,31.97994,0,0,0,216,320Zm16,0a16,16,0,0,1,32,0Zm44.75781,84.873a8.034,8.034,0,0,1-7.876-.56641L226.42188,376H240a40.04584,40.04584,0,0,0,40-40v-8a7.97129,7.97129,0,0,0-.45068-2.62769,31.98307,31.98307,0,0,0-.31787-12.31958L339.095,281.6958A95.61236,95.61236,0,0,1,344,312v24a8.00039,8.00039,0,0,0,8,8h52.59351ZM408,312v16H360V312a111.47812,111.47812,0,0,0-6.57471-37.81055l42.82617-22.43261A160.80574,160.80574,0,0,1,408,312ZM363.07056,200.85645A161.08568,161.08568,0,0,1,389.48389,237.239l-42.55982,22.29322a112.49582,112.49582,0,0,0-14.677-21.24732ZM338.207,192a24.04783,24.04783,0,0,0,11.905-3.16431c.42139.35035.83814.70606,1.2561,1.06079l-30.5415,37.08594a111.77228,111.77228,0,0,0-145.65332,0l-30.50146-37.03735a159.27758,159.27758,0,0,1,95.198-37.74A39.78729,39.78729,0,0,0,232,176v8a8.00039,8.00039,0,0,0,8,8Z"></path><path d="M295.70508,269.335,307.627,258.665a79.99983,79.99983,0,0,0-119.2539,0L200.29492,269.335a64.00188,64.00188,0,0,1,95.41016,0Z"></path><path d="M168.48828,303.12109l15.90234,1.75782a63.4229,63.4229,0,0,1,6.25782-21.31836l-14.32813-7.1211A79.35481,79.35481,0,0,0,168.48828,303.12109Z"></path></g></svg>