<svg xmlns="http://www.w3.org/2000/svg" data-name="Layer 1" id="Layer_1" viewBox="0 0 64 64"><path d="M56.17,2.17,53.64,4.71H47a1,1,0,0,0-.56,1.83l3.23,2.15-4.08,4.09a1,1,0,0,0,.31,1.62l4.95,2.13a1.09,1.09,0,0,0,.39.08,1,1,0,0,0,.71-.3l2.63-2.63L56,16.12a1,1,0,0,0,1.83-.27l1.35-5.39,2.63-2.63a4,4,0,0,0,0-5.66A4.1,4.1,0,0,0,56.17,2.17Zm4.24,4.24L57.59,9.24a1.06,1.06,0,0,0-.27.47L56.49,13l-.87-1.46a1,1,0,0,0-.74-.48,1,1,0,0,0-.83.28L51,14.42l-3-1.27,3.91-3.91a1,1,0,0,0,.29-.8,1,1,0,0,0-.44-.74l-1.5-1h3.77a1,1,0,0,0,.71-.3l2.83-2.82a2,2,0,0,1,2.82,0,2,2,0,0,1,0,2.82Z"></path><path d="M36,8a7,7,0,1,0-7,7A7,7,0,0,0,36,8ZM24,8a5,5,0,1,1,5,5A5,5,0,0,1,24,8Z"></path><path d="M16,27V37.93A13.17,13.17,0,0,0,14.73,39a14.47,14.47,0,0,0-1.32,1.55,1,1,0,0,0-1.2,0l-10.85,9a1,1,0,0,0-.07,1.48L7,56.71a1,1,0,0,0,.71.29h0a1,1,0,0,0,.72-.36l9-10.85a1,1,0,0,0,0-1.2A14.47,14.47,0,0,0,19,43.27l0,0V62a1,1,0,0,0,1,1h7a1,1,0,0,0,1-.9l1-9.55,1,9.55a1,1,0,0,0,1,.9h7a1,1,0,0,0,1-1V42a3,3,0,0,0,3-3V27A11,11,0,0,0,31,16H27A11,11,0,0,0,16,27ZM7.59,54.52,3.48,50.41l9.3-7.67,2.48,2.48Zm10-12.67A11.33,11.33,0,0,1,16,43.14L14.86,42a11.37,11.37,0,0,1,1.3-1.55s.1-.09.15-.14a2.93,2.93,0,0,0,1.39,1.39ZM37,61H31.9L30,42.9a1,1,0,0,0-2,0L26.1,61H21V41.42A2.92,2.92,0,0,0,22.05,40H36a2.9,2.9,0,0,0,1,1.42ZM28.9,18h.2L30,25.75,29,27.2l-1-1.45Zm-2,0L26,25.89a1,1,0,0,0,.16.66l2,3a1,1,0,0,0,1.66,0l2-3a1,1,0,0,0,.16-.66L31.12,18A9,9,0,0,1,40,27V39a1,1,0,0,1-1,1h-.25a.87.87,0,0,1-.38-.08,1,1,0,0,1-.61-.79L36,25.87l-2,.26L35.59,38H22.41L24,26.13l-2-.26L20.24,39.12a1,1,0,0,1-.64.81.78.78,0,0,1-.35.07H19a1,1,0,0,1-1-1V27A9,9,0,0,1,26.88,18Z"></path><path d="M60,38H59V33a3,3,0,0,0-3-3H52a3,3,0,0,0-3,3v5H48a3,3,0,0,0-3,3V59a3,3,0,0,0,3,3v1h2V62h9v1h2V61.82A3,3,0,0,0,63,59V41A3,3,0,0,0,60,38Zm-9-5a1,1,0,0,1,1-1h4a1,1,0,0,1,1,1v1H51Zm0,3h6v2H51ZM61,59a1,1,0,0,1-1,1H48a1,1,0,0,1-1-1V41a1,1,0,0,1,1-1H60a1,1,0,0,1,1,1Z"></path><path d="M58,42H50a1,1,0,0,0-1,1v6a1,1,0,0,0,1,1h8a1,1,0,0,0,1-1V43A1,1,0,0,0,58,42Zm-1,6H51V44h6Z"></path></svg>